<?xml version="1.0" encoding="utf-8"?><!-- Uploaded to: SVG Repo, www.svgrepo.com, Generator: SVG Repo Mixer Tools -->
<svg width="800px" height="800px" viewBox="0 0 32 32" id="blacksunwithrays_Light" data-name="blacksunwithrays/Light" xmlns="http://www.w3.org/2000/svg">
  <path id="Path" d="M0,0H16V4h2V0H32V16H28v2h4V32H18V28H16v4H0V18H4V16H0Z" fill="#ffffff"/>
  <path id="Path-2" data-name="Path" d="M0,0H2V4H0Z" transform="translate(16)" fill="#1a1a1a"/>
  <path id="Path-3" data-name="Path" d="M0,0H2V2H0Z" transform="translate(2 2)" fill="#1a1a1a"/>
  <path id="Path-4" data-name="Path" d="M0,0H2V2H0Z" transform="translate(28 2)" fill="#1a1a1a"/>
  <path id="Path-5" data-name="Path" d="M0,0H2V2H0Z" transform="translate(4 4)" fill="#1a1a1a"/>
  <path id="Path-6" data-name="Path" d="M0,0H2V2H0Z" transform="translate(26 4)" fill="#1a1a1a"/>
  <path id="Path-7" data-name="Path" d="M0,0H2V2H0Z" transform="translate(6 6)" fill="#1a1a1a"/>
  <path id="Path-8" data-name="Path" d="M0,0H8V2H0Z" transform="translate(12 6)" fill="#1a1a1a"/>
  <path id="Path-9" data-name="Path" d="M0,0H2V2H0Z" transform="translate(24 6)" fill="#1a1a1a"/>
  <path id="Path-10" data-name="Path" d="M0,0H2V2H0Z" transform="translate(10 8)" fill="#1a1a1a"/>
  <path id="Path-11" data-name="Path" d="M4,0h8V2H10V4H8V8h2V6h4V4h2v8H14V10H2v2H0V4H2V6H6V2H4Z" transform="translate(8 8)" fill="#ffffff"/>
  <path id="Path-12" data-name="Path" d="M0,0H2V2H0Z" transform="translate(20 8)" fill="#1a1a1a"/>
  <path id="Path-13" data-name="Path" d="M0,0H2V2H0Z" transform="translate(8 10)" fill="#1a1a1a"/>
  <path id="Path-14" data-name="Path" d="M0,0H2V2H0Z" transform="translate(10 10)" fill="#ffffff"/>
  <path id="Path-15" data-name="Path" d="M2,0H4V4H0V2H2Z" transform="translate(10 10)" fill="#1a1a1a"/>
  <path id="Path-16" data-name="Path" d="M2,0H4V2H6V4H2V6H0V2H2Z" transform="translate(16 10)" fill="#1a1a1a"/>
  <path id="Path-17" data-name="Path" d="M0,0H2V2H0Z" transform="translate(20 10)" fill="#ffffff"/>
  <path id="Path-18" data-name="Path" d="M0,0H2V2H0Z" transform="translate(22 10)" fill="#1a1a1a"/>
  <path id="Path-19" data-name="Path" d="M0,0H2V8H0Z" transform="translate(6 12)" fill="#1a1a1a"/>
  <path id="Path-20" data-name="Path" d="M0,0H2V8H0Z" transform="translate(24 12)" fill="#1a1a1a"/>
  <path id="Path-21" data-name="Path" d="M0,0H4V2H0Z" transform="translate(0 16)" fill="#1a1a1a"/>
  <path id="Path-22" data-name="Path" d="M0,0H4V2H0Z" transform="translate(28 16)" fill="#1a1a1a"/>
  <path id="Path-23" data-name="Path" d="M0,0H12V2H8V4H4V2H0Z" transform="translate(10 18)" fill="#1a1a1a"/>
  <path id="Path-24" data-name="Path" d="M0,0H2V2H0Z" transform="translate(8 20)" fill="#1a1a1a"/>
  <path id="Path-25" data-name="Path" d="M0,0H4V2H8V0h4V2H10V4H2V2H0Z" transform="translate(10 20)" fill="#ffffff"/>
  <path id="Path-26" data-name="Path" d="M0,0H2V2H0Z" transform="translate(22 20)" fill="#1a1a1a"/>
  <path id="Path-27" data-name="Path" d="M0,0H2V2H0Z" transform="translate(10 22)" fill="#1a1a1a"/>
  <path id="Path-28" data-name="Path" d="M0,0H2V2H0Z" transform="translate(20 22)" fill="#1a1a1a"/>
  <path id="Path-29" data-name="Path" d="M0,0H2V2H0Z" transform="translate(6 24)" fill="#1a1a1a"/>
  <path id="Path-30" data-name="Path" d="M0,0H8V2H0Z" transform="translate(12 24)" fill="#1a1a1a"/>
  <path id="Path-31" data-name="Path" d="M0,0H2V2H0Z" transform="translate(24 24)" fill="#1a1a1a"/>
  <path id="Path-32" data-name="Path" d="M0,0H2V2H0Z" transform="translate(4 26)" fill="#1a1a1a"/>
  <path id="Path-33" data-name="Path" d="M0,0H2V2H0Z" transform="translate(26 26)" fill="#1a1a1a"/>
  <path id="Path-34" data-name="Path" d="M0,0H2V2H0Z" transform="translate(2 28)" fill="#1a1a1a"/>
  <path id="Path-35" data-name="Path" d="M0,0H2V4H0Z" transform="translate(16 28)" fill="#1a1a1a"/>
  <path id="Path-36" data-name="Path" d="M0,0H2V2H0Z" transform="translate(28 28)" fill="#1a1a1a"/>
</svg>